<?xml version="1.0" encoding="UTF-8"?><svg id="Layer_2" xmlns="http://www.w3.org/2000/svg" viewBox="0 0 1265.75 158.09"><defs><style>.cls-1{stroke-linecap:round;stroke-linejoin:round;stroke-width:10px;}.cls-1,.cls-2{fill:#fff;stroke:#fff;}.cls-2{stroke-miterlimit:10;}</style></defs><g id="Layer_1-2"><path class="cls-1" d="M52.82,116.06c-31.48,0-47.82-16-47.82-45.24V25.25h43v40.25c0,9.63,4.47,14.45,15.31,14.45,5.85,0,11.52-.86,17.03-2.58V25.25h43v120.4h-43v-33.54c-7.22,2.06-18.4,3.96-27.52,3.96Z"/><path class="cls-1" d="M149.4,148.1v-32.51c8.26,4.64,16.86,6.71,24.25,6.71,6.71,0,10.32-2.58,11.52-7.4l.69-2.75-43.69-86.34h42.31l19.26,49.54,11.87-49.54h40.94l-32.68,89.78c-9.8,26.66-20.12,37.5-44.03,37.5-10.32,0-18.92-1.55-30.44-4.99Z"/><path class="cls-1" d="M249.71,92.65h16.17l25.97-70.84h56.42l25.63,70.84h16.17v56.44h-42.31v-24.4h-55.73v24.4h-42.31v-56.44ZM334.16,92.65l-14.1-45.12-14.45,45.12h28.55Z"/><path class="cls-1" d="M402.06,82.99c0-37.32,28.9-62.61,68.8-62.61s68.97,25.28,68.97,62.61-28.9,62.61-68.97,62.61-68.8-25.11-68.8-62.61ZM495.28,83.16c0-16.34-10.15-25.28-24.42-25.28s-24.25,8.94-24.25,25.28,10.15,24.77,24.25,24.77,24.42-8.94,24.42-24.77Z"/><path class="cls-2" d="M596.12,145.38c-16.14,0-28.88-1.69-45.01-6v-27.77c15.21,5.6,29.4,8.43,42.19,8.43s14.98-5.59,14.98-10.28c0-9.21-8.64-10.28-15.14-10.28h-29.35v-18.44h27.94c10.87,0,16.39-3.62,16.39-10.75,0-6.3-5.3-9.5-15.76-9.5-11.82,0-24.62,2.47-39.06,7.54v-27.47c16.37-3.95,31.57-5.87,46.42-5.87,28.01,0,44.07,9.9,44.07,27.16,0,15.14-9.29,21.96-33.13,24.35-.93.09-1.64.88-1.64,1.81v.31c0,.99.79,1.8,1.78,1.82,22.93.47,34.56,8.86,34.56,24.96,0,19.05-17.95,29.98-49.24,29.98Z"/><path class="cls-2" d="M728.09,143.18v-34.68c0-1.01-.82-1.82-1.82-1.82h-34.46c-1.01,0-1.82.82-1.82,1.82v34.68h-35.52V37.18h35.52v37.34c0,1.01.82,1.82,1.82,1.82h34.46c1.01,0,1.82-.82,1.82-1.82v-37.34h35.36v106.01h-35.36Z"/><path class="cls-2" d="M854.99,143.26l-3.55-13.22c-.21-.8-.94-1.35-1.76-1.35h-36.18c-.83,0-1.56.56-1.76,1.37l-3.41,13.2h-35.06l35.44-106h45.93l35.13,106h-34.77ZM831.51,61.03c-.82,0-1.54.55-1.75,1.34l-11.28,40.88c-.15.55-.04,1.14.31,1.59.34.45.88.72,1.45.72h22.71c.57,0,1.11-.27,1.45-.72.34-.45.46-1.04.3-1.59l-11.44-40.88c-.22-.79-.94-1.33-1.75-1.33h0Z"/><path class="cls-2" d="M978.83,144.79v-30.23l1.72-27.36c.03-.5-.15-.99-.49-1.36s-.83-.57-1.33-.57h-.31c-.6,0-1.15.29-1.49.78l-40.97,58.74h-36.39V38.79h35.52v30.23l-1.72,27.36c-.03.5.15.99.49,1.36s.83.57,1.33.57h.31c.6,0,1.15-.29,1.49-.78l40.97-58.74h36.39v106h-35.52ZM957.12,26.69c-12.33,0-23.37-2.7-32.01-7.82V.86c10.09,5.74,20.1,8.32,32.01,8.32s21.92-2.58,32.01-8.32v18.01c-8.64,5.12-19.68,7.82-32.01,7.82Z"/><path class="cls-2" d="M1095.56,145.5l-6.37-23.56c-3.09-11.33-9.96-16.38-22.28-16.38h-6.11c-1.01,0-1.82.82-1.82,1.82v38.12h-35.52V39.49h35.52v40.78c0,1.01.82,1.82,1.82,1.82h6.42c10.52,0,23.21-7.45,24.48-42.61h35.63c-1.8,31.53-13.82,46.14-41.12,50.26-.89.13-1.55.9-1.55,1.8v.31c0,.95.72,1.74,1.67,1.82l14.88,1.25c13.18,1.54,20.13,7.48,23.94,20.47l8.58,30.09h-38.17Z"/><path class="cls-2" d="M1204.26,145.38c-35.82,0-60.83-22.7-60.83-55.2s25.02-55.2,60.83-55.2,60.99,22.7,60.99,55.2-25.08,55.2-60.99,55.2ZM1204.26,65.49c-14.52,0-23.91,9.75-23.91,24.85s9.38,24.38,23.91,24.38,24.06-9.57,24.06-24.38-9.45-24.85-24.06-24.85Z"/></g></svg>